<svg width="18" height="19" viewBox="0 0 18 19" fill="none" xmlns="http://www.w3.org/2000/svg">
<g clip-path="url(#clip0_190_322)">
<path d="M17.9918 9.67775C17.9918 8.89933 17.9306 8.33129 17.798 7.74222H9.17969V11.2556H14.2385C14.1365 12.1288 13.5858 13.4437 12.3618 14.3272L12.3447 14.4449L15.0696 16.6221L15.2584 16.6415C16.9923 14.99 17.9918 12.56 17.9918 9.67775Z" fill="#4285F4"/>
<path d="M9.17871 18.9347C11.6571 18.9347 13.7377 18.0932 15.2574 16.6415L12.3608 14.3272C11.5857 14.8848 10.5454 15.274 9.17871 15.274C6.75131 15.274 4.69109 13.6225 3.95667 11.3398L3.84902 11.3492L1.01557 13.6109L0.978516 13.7171C2.48798 16.8098 5.58855 18.9347 9.17871 18.9347Z" fill="#34A853"/>
<path d="M3.95726 11.3398C3.76348 10.7507 3.65133 10.1195 3.65133 9.46736C3.65133 8.81513 3.76348 8.18399 3.94706 7.59492L3.94193 7.46946L1.07297 5.17148L0.979102 5.21753C0.356977 6.5009 0 7.94207 0 9.46736C0 10.9927 0.356977 12.4338 0.979102 13.7171L3.95726 11.3398Z" fill="#FBBC05"/>
<path d="M9.17871 3.66069C10.9024 3.66069 12.065 4.4286 12.728 5.07032L15.3186 2.46152C13.7276 0.936221 11.6571 0 9.17871 0C5.58855 0 2.48798 2.12488 0.978516 5.21753L3.94648 7.59492C4.69109 5.31224 6.75131 3.66069 9.17871 3.66069Z" fill="#EB4335"/>
</g>
<defs>
<clipPath id="clip0_190_322">
<rect width="18" height="19" fill="white"/>
</clipPath>
</defs>
</svg>
