<svg width="50" height="50" viewBox="0 0 50 50" fill="none" xmlns="http://www.w3.org/2000/svg">
<path d="M45.729 18.1688L45.6769 17.8188L45.6227 17.8313C45.2525 16.1002 44.3998 14.5092 43.163 13.2425C41.9263 11.9758 40.3562 11.0851 38.6344 10.6736C36.9126 10.262 35.1094 10.3464 33.4336 10.917C31.7577 11.4875 30.2777 12.5209 29.1647 13.8976C28.0516 15.2742 27.3511 16.9379 27.1442 18.6961C26.9373 20.4543 27.2325 22.2351 27.9955 23.8325C28.7586 25.4299 29.9583 26.7787 31.4559 27.7227C32.9535 28.6667 34.6878 29.1673 36.4582 29.1667C36.9227 29.1667 37.3686 29.0959 37.8123 29.0313C37.6686 29.5147 37.5207 30.0063 37.2832 30.448C37.0457 31.0897 36.6748 31.6459 36.3061 32.2063C35.9977 32.8126 35.454 33.223 35.054 33.7417C34.6352 34.2459 34.0644 34.5813 33.6123 35.0001C33.1686 35.4376 32.5873 35.6563 32.1248 35.9647C31.6415 36.2417 31.2207 36.548 30.7707 36.6938L29.6477 37.1563L28.6602 37.5667L29.6686 41.6063L30.9123 41.3063C31.3102 41.2063 31.7957 41.0897 32.3477 40.9501C32.9123 40.8459 33.5144 40.5605 34.1852 40.3001C34.8457 40.0022 35.6144 39.8042 36.3269 39.3272C37.0436 38.873 37.8707 38.4938 38.5998 37.8855C39.3061 37.2584 40.1582 36.7147 40.7873 35.9188C41.4748 35.173 42.154 34.3897 42.6811 33.498C43.2915 32.648 43.7061 31.7147 44.1436 30.7917C44.5394 29.8688 44.8582 28.9251 45.1186 28.0084C45.6123 26.1709 45.8332 24.4251 45.9186 22.9313C45.9894 21.4355 45.9477 20.1917 45.8602 19.2917C45.831 18.9159 45.7872 18.5413 45.729 18.1688ZM22.8123 18.1688L22.7602 17.8188L22.7061 17.8313C22.3359 16.1002 21.4831 14.5092 20.2464 13.2425C19.0096 11.9758 17.4395 11.0851 15.7177 10.6736C13.9959 10.262 12.1928 10.3464 10.5169 10.917C8.84106 11.4875 7.361 12.5209 6.24798 13.8976C5.13497 15.2742 4.43448 16.9379 4.22758 18.6961C4.02068 20.4543 4.31582 22.2351 5.07886 23.8325C5.84189 25.4299 7.04162 26.7787 8.53925 27.7227C10.0369 28.6667 11.7712 29.1673 13.5415 29.1667C14.0061 29.1667 14.4519 29.0959 14.8957 29.0313C14.7519 29.5147 14.604 30.0063 14.3665 30.448C14.129 31.0897 13.7582 31.6459 13.3894 32.2063C13.0811 32.8126 12.5373 33.223 12.1373 33.7417C11.7186 34.2459 11.1477 34.5813 10.6957 35.0001C10.2519 35.4376 9.67066 35.6563 9.20816 35.9647C8.72482 36.2417 8.30399 36.548 7.85399 36.6938L6.73107 37.1563C6.10399 37.4126 5.74566 37.5626 5.74566 37.5626L6.75399 41.6022L7.99774 41.3022C8.39566 41.2022 8.88107 41.0855 9.43315 40.9459C9.99774 40.8417 10.5998 40.5563 11.2707 40.2959C11.9311 39.998 12.6998 39.8001 13.4123 39.323C14.129 38.8688 14.9561 38.4897 15.6852 37.8813C16.3915 37.2542 17.2436 36.7105 17.8727 35.9147C18.5602 35.1688 19.2394 34.3855 19.7665 33.4938C20.3769 32.6438 20.7915 31.7105 21.229 30.7876C21.6248 29.8647 21.9436 28.9209 22.204 28.0042C22.6977 26.1667 22.9186 24.4209 23.004 22.9272C23.0748 21.4313 23.0332 20.1876 22.9457 19.2876C22.9145 18.9132 22.8701 18.54 22.8123 18.1688Z" fill="#CCCCCC"/>
</svg>
