<svg width="19" height="19" viewBox="0 0 19 19" fill="none" xmlns="http://www.w3.org/2000/svg">
<path d="M7.9705 10.4559C7.81839 10.4559 7.67251 10.5164 7.56496 10.6239C7.4574 10.7315 7.39697 10.8774 7.39697 11.0295C7.39697 11.1816 7.4574 11.3275 7.56496 11.435C7.67251 11.5426 7.81839 11.603 7.9705 11.603H11.0293C11.1814 11.603 11.3273 11.5426 11.4349 11.435C11.5424 11.3275 11.6029 11.1816 11.6029 11.0295C11.6029 10.8774 11.5424 10.7315 11.4349 10.6239C11.3273 10.5164 11.1814 10.4559 11.0293 10.4559H7.9705Z" fill="#222222"/>
<path fill-rule="evenodd" clip-rule="evenodd" d="M11.5379 2.10534C11.6739 2.03735 11.8313 2.02614 11.9756 2.07418C12.1198 2.12222 12.2391 2.22557 12.3072 2.36152L13.6936 5.13434C14.0209 5.15117 14.3184 5.1764 14.5883 5.2154C15.3958 5.33087 16.0642 5.58017 16.5391 6.16746C17.0139 6.75552 17.1179 7.46058 17.0621 8.27422C17.0086 9.06264 16.7945 10.0575 16.5284 11.3002L16.1835 12.9114C16.0038 13.7503 15.8577 14.4301 15.6742 14.9608C15.483 15.5152 15.2306 15.9702 14.8009 16.3182C14.3711 16.6661 13.8725 16.8168 13.2914 16.8879C12.7331 16.9559 12.0372 16.9559 11.1808 16.9559H7.81912C6.96112 16.9559 6.266 16.9559 5.70776 16.8879C5.12659 16.8168 4.628 16.6661 4.19823 16.3182C3.7677 15.9702 3.51612 15.5152 3.32494 14.9616C3.14141 14.4301 2.99612 13.7503 2.81565 12.9122L2.47076 11.3009C2.20465 10.0575 1.99129 9.06264 1.937 8.27422C1.88117 7.46058 1.98517 6.75552 2.46006 6.16746C2.93417 5.58017 3.60253 5.33087 4.41006 5.2154C4.68 5.17717 4.97823 5.15117 5.30476 5.13434L6.69347 2.36152C6.76212 2.22665 6.88129 2.12438 7.02502 2.07699C7.16875 2.02961 7.32538 2.04095 7.46078 2.10855C7.59618 2.17615 7.69937 2.29453 7.74787 2.43788C7.79637 2.58124 7.78625 2.73795 7.7197 2.87387L6.60323 5.10452C6.88159 5.10299 7.17447 5.10299 7.48188 5.10299H11.518C11.8254 5.10299 12.1183 5.10299 12.3966 5.10452L11.2809 2.87387C11.2129 2.73788 11.2017 2.58045 11.2498 2.43619C11.2978 2.29194 11.4012 2.17266 11.5371 2.10458L11.5379 2.10534ZM4.70676 6.33264L4.39859 6.94899C4.36425 7.01645 4.34361 7.09003 4.33785 7.1655C4.33209 7.24098 4.34132 7.31684 4.36502 7.38873C4.38872 7.46062 4.42641 7.5271 4.47593 7.58435C4.52545 7.6416 4.58581 7.68848 4.65353 7.72229C4.72125 7.7561 4.79499 7.77617 4.87051 7.78134C4.94602 7.78652 5.02182 7.77669 5.09352 7.75243C5.16522 7.72818 5.23141 7.68997 5.28827 7.64001C5.34513 7.59005 5.39154 7.52932 5.42482 7.46134L6.02665 6.2577C6.46253 6.25005 6.95959 6.24928 7.52853 6.24928H11.4714C12.0403 6.24928 12.5374 6.24928 12.9732 6.25693L13.5751 7.46134C13.6437 7.59621 13.7629 7.69848 13.9066 7.74587C14.0503 7.79325 14.207 7.78191 14.3424 7.71431C14.4778 7.64671 14.581 7.52833 14.6295 7.38498C14.678 7.24162 14.6678 7.08491 14.6013 6.94899L14.2931 6.33264L14.4262 6.35022C15.1022 6.44734 15.4333 6.62399 15.6474 6.88781C15.8577 7.14781 15.9609 7.50187 15.9196 8.16105H3.08023C3.03894 7.50187 3.14217 7.14781 3.35247 6.88781C3.56659 6.62399 3.8977 6.44734 4.5737 6.35022L4.70676 6.33264ZM3.60253 11.1059C3.47107 10.5088 3.34845 9.90967 3.2347 9.30887H15.7652C15.651 9.90964 15.5281 10.5087 15.3966 11.1059L15.0693 12.6353C14.8796 13.5186 14.7481 14.1296 14.5898 14.5869C14.4369 15.0304 14.2809 15.2644 14.0798 15.4265C13.8794 15.5886 13.6171 15.6926 13.1529 15.7492C12.6719 15.8081 12.0464 15.8089 11.1433 15.8089H7.85582C6.95347 15.8089 6.32794 15.8081 5.84694 15.7492C5.382 15.6926 5.12047 15.5886 4.92012 15.4265C4.719 15.2644 4.56223 15.0296 4.41006 14.5869C4.25176 14.1296 4.11947 13.5186 3.93059 12.6353L3.60253 11.1059Z" fill="#222222"/>
</svg>
